# xmcd
#
# Track frame offsets:
#	150
#	11072
#	24400
#	39539
#	51009
#	64354
#	76634
#	92046
#	104348
#	114705
#	128128
#	137905
#	150635
#	160728
#	174533
#	188633
#	200306
#	214003
#	224924
#	236276
#	246248
#	258203
#	268571
#	279719
#	295317
#	309169
#
# Disc length: 4267
#
# Revision: 1
# Processed by: cddbd v1.5.1PL0 Copyright (c) Steve Scherf et al.
# Submitted via: ExactAudioCopy v0.95a5
# Normalized: r0:TRMNUM
#
DISCID=7310a91a
DTITLE=Woody Guthrie - This Land Is Your Land
DYEAR=2000
DGENRE=
TTITLE0=Pastures Of Plenty
TTITLE1=House Of The Rising Sun
TTITLE2=Vigilante Man
TTITLE3=Do Re Mi
TTITLE4=Shinking Of The Reuben James
TTITLE5=John Henry
TTITLE6=Talking Dust Bowl Blues
TTITLE7=i Ain't got No Home
TTITLE8=The Biggest Thing Man Has Ever Done
TTITLE9=Blowin' Down This Road Feeling Bad
TTITLE10=Grand Coulee Davy
TTITLE11=Gypsy Davy
TTITLE12=Ramblin' Round Your City
TTITLE13=We Shall Be free
TTITLE14=Pretty Boy Floyd
TTITLE15=New York Town
TTITLE16=Worried Man Blues
TTITLE17=Bury Me Beneath The Willow
TTITLE18=Old Time Religon
TTITLE19=Ezekiel Saw The Wheel
TTITLE20=Dust Pneumonia Blues
TTITLE21=Cumberland Gap
TTITLE22=Philadelphia Lawyer
TTITLE23=Tom Joad (Part.2)
TTITLE24=So Long It's Been Good To Know Yhu
TTITLE25=This Land Is Your Land
EXTD=
EXTT0=
EXTT1=
EXTT2=
EXTT3=
EXTT4=
EXTT5=
EXTT6=
EXTT7=
EXTT8=
EXTT9=
EXTT10=
EXTT11=
EXTT12=
EXTT13=
EXTT14=
EXTT15=
EXTT16=
EXTT17=
EXTT18=
EXTT19=
EXTT20=
EXTT21=
EXTT22=
EXTT23=
EXTT24=
EXTT25=
PLAYORDER=
